<svg xmlns="http://www.w3.org/2000/svg" xmlns:xlink="http://www.w3.org/1999/xlink" width="1080" zoomAndPan="magnify" viewBox="0 0 810 1012.49997" height="1350" preserveAspectRatio="xMidYMid meet" version="1.0"><defs><clipPath id="89c638ff14"><path d="M 141.640625 391.433594 L 256.332031 391.433594 L 256.332031 506.125 L 141.640625 506.125 Z M 141.640625 391.433594 " clip-rule="nonzero"/></clipPath><clipPath id="58d52e9ab7"><path d="M 290.433594 526.863281 L 405 526.863281 L 405 641.554688 L 290.433594 641.554688 Z M 290.433594 526.863281 " clip-rule="nonzero"/></clipPath><clipPath id="4456bf49b9"><path d="M 256.207031 217.421875 L 370.902344 217.421875 L 370.902344 332 L 256.207031 332 Z M 256.207031 217.421875 " clip-rule="nonzero"/></clipPath><clipPath id="0608c5d1d0"><path d="M 405 344.703125 L 519.691406 344.703125 L 519.691406 459.398438 L 405 459.398438 Z M 405 344.703125 " clip-rule="nonzero"/></clipPath></defs><g clip-path="url(#89c638ff14)"><path fill="#000000" d="M 256.332031 448.777344 C 256.332031 450.65625 256.242188 452.53125 256.058594 454.398438 C 255.875 456.269531 255.597656 458.125 255.230469 459.964844 C 254.867188 461.808594 254.410156 463.628906 253.863281 465.425781 C 253.320312 467.222656 252.6875 468.988281 251.96875 470.722656 C 251.25 472.460938 250.449219 474.15625 249.5625 475.8125 C 248.675781 477.46875 247.710938 479.078125 246.667969 480.640625 C 245.625 482.199219 244.507812 483.707031 243.316406 485.160156 C 242.125 486.609375 240.867188 488 239.539062 489.328125 C 238.210938 490.65625 236.820312 491.917969 235.367188 493.109375 C 233.914062 494.300781 232.410156 495.417969 230.847656 496.460938 C 229.285156 497.503906 227.675781 498.46875 226.019531 499.355469 C 224.363281 500.238281 222.667969 501.042969 220.933594 501.761719 C 219.199219 502.480469 217.429688 503.109375 215.632812 503.65625 C 213.835938 504.203125 212.015625 504.65625 210.175781 505.023438 C 208.332031 505.390625 206.476562 505.664062 204.609375 505.847656 C 202.738281 506.035156 200.867188 506.125 198.988281 506.125 C 197.109375 506.125 195.234375 506.035156 193.367188 505.847656 C 191.496094 505.664062 189.640625 505.390625 187.800781 505.023438 C 185.957031 504.65625 184.136719 504.203125 182.339844 503.65625 C 180.542969 503.109375 178.777344 502.480469 177.042969 501.761719 C 175.304688 501.042969 173.609375 500.238281 171.953125 499.355469 C 170.296875 498.46875 168.6875 497.503906 167.128906 496.460938 C 165.566406 495.417969 164.058594 494.300781 162.605469 493.109375 C 161.15625 491.917969 159.765625 490.65625 158.4375 489.328125 C 157.109375 488 155.847656 486.609375 154.65625 485.160156 C 153.464844 483.707031 152.347656 482.199219 151.304688 480.640625 C 150.261719 479.078125 149.296875 477.46875 148.410156 475.8125 C 147.527344 474.15625 146.722656 472.460938 146.003906 470.722656 C 145.285156 468.988281 144.65625 467.222656 144.109375 465.425781 C 143.566406 463.628906 143.109375 461.808594 142.742188 459.964844 C 142.375 458.125 142.101562 456.269531 141.917969 454.398438 C 141.734375 452.53125 141.640625 450.65625 141.640625 448.777344 C 141.640625 446.902344 141.734375 445.027344 141.917969 443.15625 C 142.101562 441.289062 142.375 439.433594 142.742188 437.589844 C 143.109375 435.75 143.566406 433.929688 144.109375 432.132812 C 144.65625 430.335938 145.285156 428.570312 146.003906 426.832031 C 146.722656 425.097656 147.527344 423.402344 148.410156 421.746094 C 149.296875 420.089844 150.261719 418.480469 151.304688 416.917969 C 152.347656 415.355469 153.464844 413.851562 154.65625 412.398438 C 155.847656 410.945312 157.109375 409.558594 158.4375 408.230469 C 159.765625 406.902344 161.15625 405.640625 162.605469 404.449219 C 164.058594 403.257812 165.566406 402.140625 167.128906 401.097656 C 168.6875 400.054688 170.296875 399.089844 171.953125 398.203125 C 173.609375 397.316406 175.304688 396.515625 177.042969 395.796875 C 178.777344 395.078125 180.542969 394.445312 182.339844 393.902344 C 184.136719 393.355469 185.957031 392.902344 187.800781 392.535156 C 189.640625 392.167969 191.496094 391.890625 193.367188 391.707031 C 195.234375 391.523438 197.109375 391.433594 198.988281 391.433594 C 200.867188 391.433594 202.738281 391.523438 204.609375 391.707031 C 206.476562 391.890625 208.332031 392.167969 210.175781 392.535156 C 212.015625 392.902344 213.835938 393.355469 215.632812 393.902344 C 217.429688 394.445312 219.199219 395.078125 220.933594 395.796875 C 222.667969 396.515625 224.363281 397.320312 226.019531 398.203125 C 227.675781 399.089844 229.285156 400.054688 230.847656 401.097656 C 232.410156 402.140625 233.914062 403.257812 235.367188 404.449219 C 236.820312 405.640625 238.210938 406.902344 239.539062 408.230469 C 240.867188 409.558594 242.125 410.945312 243.316406 412.398438 C 244.507812 413.851562 245.625 415.355469 246.667969 416.917969 C 247.710938 418.480469 248.675781 420.089844 249.5625 421.746094 C 250.449219 423.402344 251.25 425.097656 251.96875 426.832031 C 252.6875 428.570312 253.320312 430.335938 253.863281 432.132812 C 254.410156 433.929688 254.867188 435.75 255.230469 437.589844 C 255.597656 439.433594 255.875 441.289062 256.058594 443.15625 C 256.242188 445.027344 256.332031 446.902344 256.332031 448.777344 Z M 256.332031 448.777344 " fill-opacity="1" fill-rule="nonzero"/></g><g clip-path="url(#58d52e9ab7)"><path fill="#0097b2" d="M 404.996094 584.144531 C 404.996094 586.023438 404.90625 587.894531 404.722656 589.761719 C 404.535156 591.628906 404.261719 593.480469 403.894531 595.320312 C 403.53125 597.160156 403.074219 598.976562 402.53125 600.773438 C 401.984375 602.570312 401.355469 604.332031 400.636719 606.066406 C 399.917969 607.800781 399.117188 609.492188 398.234375 611.148438 C 397.347656 612.804688 396.386719 614.410156 395.34375 615.96875 C 394.300781 617.53125 393.183594 619.035156 391.996094 620.484375 C 390.804688 621.933594 389.546875 623.324219 388.21875 624.648438 C 386.890625 625.976562 385.503906 627.234375 384.054688 628.425781 C 382.605469 629.617188 381.097656 630.730469 379.539062 631.773438 C 377.980469 632.816406 376.371094 633.78125 374.71875 634.664062 C 373.0625 635.546875 371.367188 636.347656 369.636719 637.066406 C 367.902344 637.785156 366.136719 638.417969 364.34375 638.960938 C 362.546875 639.503906 360.730469 639.960938 358.890625 640.328125 C 357.050781 640.691406 355.195312 640.96875 353.328125 641.152344 C 351.460938 641.335938 349.589844 641.429688 347.714844 641.429688 C 345.839844 641.429688 343.96875 641.335938 342.101562 641.152344 C 340.234375 640.96875 338.378906 640.691406 336.539062 640.328125 C 334.699219 639.960938 332.882812 639.503906 331.085938 638.960938 C 329.289062 638.417969 327.527344 637.785156 325.792969 637.066406 C 324.058594 636.347656 322.367188 635.546875 320.710938 634.664062 C 319.058594 633.78125 317.449219 632.816406 315.890625 631.773438 C 314.332031 630.730469 312.824219 629.617188 311.375 628.425781 C 309.925781 627.234375 308.535156 625.976562 307.210938 624.648438 C 305.882812 623.324219 304.625 621.933594 303.433594 620.484375 C 302.246094 619.035156 301.128906 617.53125 300.085938 615.96875 C 299.042969 614.410156 298.082031 612.804688 297.195312 611.148438 C 296.3125 609.492188 295.511719 607.800781 294.792969 606.066406 C 294.074219 604.332031 293.441406 602.570312 292.898438 600.773438 C 292.355469 598.976562 291.898438 597.160156 291.53125 595.320312 C 291.167969 593.480469 290.890625 591.628906 290.707031 589.761719 C 290.523438 587.894531 290.433594 586.023438 290.433594 584.144531 C 290.433594 582.269531 290.523438 580.398438 290.707031 578.53125 C 290.890625 576.664062 291.167969 574.808594 291.53125 572.96875 C 291.898438 571.128906 292.355469 569.3125 292.898438 567.515625 C 293.441406 565.722656 294.074219 563.957031 294.792969 562.222656 C 295.511719 560.492188 296.3125 558.796875 297.195312 557.144531 C 298.082031 555.488281 299.042969 553.882812 300.085938 552.320312 C 301.128906 550.761719 302.246094 549.257812 303.433594 547.804688 C 304.625 546.355469 305.882812 544.96875 307.210938 543.640625 C 308.535156 542.3125 309.925781 541.054688 311.375 539.867188 C 312.824219 538.675781 314.332031 537.558594 315.890625 536.515625 C 317.449219 535.476562 319.058594 534.511719 320.710938 533.628906 C 322.367188 532.742188 324.058594 531.941406 325.792969 531.222656 C 327.527344 530.503906 329.289062 529.875 331.085938 529.328125 C 332.882812 528.785156 334.699219 528.328125 336.539062 527.964844 C 338.378906 527.597656 340.234375 527.324219 342.101562 527.140625 C 343.96875 526.957031 345.839844 526.863281 347.714844 526.863281 C 349.589844 526.863281 351.460938 526.957031 353.328125 527.140625 C 355.195312 527.324219 357.050781 527.597656 358.890625 527.964844 C 360.730469 528.328125 362.546875 528.785156 364.34375 529.328125 C 366.136719 529.875 367.902344 530.503906 369.636719 531.222656 C 371.367188 531.941406 373.0625 532.742188 374.71875 533.628906 C 376.371094 534.511719 377.980469 535.476562 379.539062 536.515625 C 381.097656 537.558594 382.605469 538.675781 384.054688 539.867188 C 385.503906 541.054688 386.890625 542.3125 388.21875 543.640625 C 389.546875 544.96875 390.804688 546.355469 391.996094 547.804688 C 393.183594 549.257812 394.300781 550.761719 395.34375 552.320312 C 396.386719 553.882812 397.347656 555.488281 398.234375 557.144531 C 399.117188 558.796875 399.917969 560.492188 400.636719 562.222656 C 401.355469 563.957031 401.984375 565.722656 402.53125 567.515625 C 403.074219 569.3125 403.53125 571.128906 403.894531 572.96875 C 404.261719 574.808594 404.535156 576.664062 404.722656 578.53125 C 404.90625 580.398438 404.996094 582.269531 404.996094 584.144531 Z M 404.996094 584.144531 " fill-opacity="1" fill-rule="nonzero"/></g><g clip-path="url(#4456bf49b9)"><path fill="#ff751f" d="M 370.773438 274.703125 C 370.773438 276.582031 370.679688 278.453125 370.496094 280.320312 C 370.3125 282.1875 370.039062 284.039062 369.671875 285.878906 C 369.304688 287.71875 368.851562 289.539062 368.304688 291.332031 C 367.761719 293.128906 367.128906 294.890625 366.414062 296.625 C 365.695312 298.359375 364.894531 300.054688 364.007812 301.707031 C 363.125 303.363281 362.160156 304.96875 361.117188 306.527344 C 360.078125 308.089844 358.960938 309.59375 357.769531 311.042969 C 356.582031 312.496094 355.320312 313.882812 353.996094 315.210938 C 352.667969 316.535156 351.28125 317.792969 349.828125 318.984375 C 348.378906 320.175781 346.875 321.289062 345.316406 322.332031 C 343.753906 323.375 342.148438 324.339844 340.492188 325.222656 C 338.839844 326.109375 337.144531 326.910156 335.410156 327.625 C 333.679688 328.34375 331.914062 328.976562 330.117188 329.519531 C 328.324219 330.066406 326.503906 330.519531 324.664062 330.886719 C 322.824219 331.253906 320.972656 331.527344 319.105469 331.710938 C 317.238281 331.894531 315.367188 331.988281 313.492188 331.988281 C 311.613281 331.988281 309.742188 331.894531 307.875 331.710938 C 306.007812 331.527344 304.15625 331.253906 302.316406 330.886719 C 300.476562 330.519531 298.65625 330.066406 296.863281 329.519531 C 295.066406 328.976562 293.304688 328.34375 291.570312 327.625 C 289.835938 326.910156 288.140625 326.109375 286.488281 325.222656 C 284.832031 324.339844 283.226562 323.375 281.667969 322.332031 C 280.105469 321.289062 278.601562 320.175781 277.152344 318.984375 C 275.699219 317.792969 274.3125 316.535156 272.984375 315.210938 C 271.660156 313.882812 270.402344 312.496094 269.210938 311.042969 C 268.019531 309.59375 266.902344 308.089844 265.863281 306.527344 C 264.820312 304.96875 263.855469 303.363281 262.972656 301.707031 C 262.085938 300.054688 261.285156 298.359375 260.570312 296.625 C 259.851562 294.890625 259.21875 293.128906 258.675781 291.332031 C 258.128906 289.539062 257.675781 287.71875 257.308594 285.878906 C 256.941406 284.039062 256.667969 282.1875 256.484375 280.320312 C 256.300781 278.453125 256.207031 276.582031 256.207031 274.703125 C 256.207031 272.828125 256.300781 270.957031 256.484375 269.089844 C 256.667969 267.222656 256.941406 265.371094 257.308594 263.53125 C 257.675781 261.691406 258.128906 259.871094 258.675781 258.078125 C 259.21875 256.28125 259.851562 254.515625 260.570312 252.785156 C 261.285156 251.050781 262.085938 249.355469 262.972656 247.703125 C 263.855469 246.046875 264.820312 244.441406 265.863281 242.878906 C 266.90625 241.320312 268.019531 239.816406 269.210938 238.367188 C 270.402344 236.914062 271.660156 235.527344 272.984375 234.199219 C 274.3125 232.875 275.699219 231.613281 277.152344 230.425781 C 278.601562 229.234375 280.105469 228.117188 281.667969 227.078125 C 283.226562 226.035156 284.832031 225.070312 286.488281 224.1875 C 288.140625 223.300781 289.835938 222.5 291.570312 221.78125 C 293.304688 221.066406 295.066406 220.433594 296.863281 219.890625 C 298.65625 219.34375 300.476562 218.890625 302.316406 218.523438 C 304.15625 218.15625 306.007812 217.882812 307.875 217.699219 C 309.742188 217.515625 311.613281 217.421875 313.492188 217.421875 C 315.367188 217.421875 317.238281 217.515625 319.105469 217.699219 C 320.972656 217.882812 322.824219 218.15625 324.664062 218.523438 C 326.503906 218.890625 328.324219 219.34375 330.117188 219.890625 C 331.914062 220.433594 333.679688 221.066406 335.410156 221.78125 C 337.144531 222.5 338.839844 223.300781 340.492188 224.1875 C 342.148438 225.070312 343.753906 226.035156 345.316406 227.078125 C 346.875 228.117188 348.378906 229.234375 349.828125 230.425781 C 351.28125 231.613281 352.667969 232.875 353.996094 234.199219 C 355.320312 235.527344 356.582031 236.914062 357.769531 238.367188 C 358.960938 239.816406 360.078125 241.320312 361.117188 242.878906 C 362.160156 244.441406 363.125 246.046875 364.007812 247.703125 C 364.894531 249.355469 365.695312 251.050781 366.414062 252.785156 C 367.128906 254.515625 367.761719 256.28125 368.304688 258.078125 C 368.851562 259.871094 369.304688 261.691406 369.671875 263.53125 C 370.039062 265.371094 370.3125 267.222656 370.496094 269.089844 C 370.679688 270.957031 370.773438 272.828125 370.773438 274.703125 Z M 370.773438 274.703125 " fill-opacity="1" fill-rule="nonzero"/></g><g clip-path="url(#0608c5d1d0)"><path fill="#ffbd59" d="M 519.566406 401.984375 C 519.566406 403.863281 519.472656 405.734375 519.289062 407.601562 C 519.105469 409.46875 518.828125 411.320312 518.464844 413.160156 C 518.097656 415 517.640625 416.820312 517.097656 418.613281 C 516.554688 420.410156 515.921875 422.171875 515.203125 423.90625 C 514.484375 425.640625 513.683594 427.335938 512.800781 428.988281 C 511.917969 430.644531 510.953125 432.25 509.910156 433.808594 C 508.867188 435.371094 507.753906 436.875 506.5625 438.324219 C 505.371094 439.777344 504.113281 441.164062 502.785156 442.492188 C 501.460938 443.816406 500.070312 445.074219 498.621094 446.265625 C 497.171875 447.457031 495.667969 448.570312 494.105469 449.613281 C 492.546875 450.65625 490.9375 451.621094 489.285156 452.503906 C 487.628906 453.390625 485.9375 454.191406 484.203125 454.90625 C 482.46875 455.625 480.707031 456.257812 478.910156 456.800781 C 477.113281 457.347656 475.296875 457.800781 473.457031 458.167969 C 471.617188 458.535156 469.765625 458.808594 467.898438 458.992188 C 466.03125 459.175781 464.160156 459.269531 462.28125 459.269531 C 460.40625 459.269531 458.535156 459.175781 456.667969 458.992188 C 454.800781 458.808594 452.945312 458.535156 451.105469 458.167969 C 449.265625 457.800781 447.449219 457.347656 445.652344 456.800781 C 443.859375 456.257812 442.09375 455.625 440.359375 454.90625 C 438.628906 454.191406 436.933594 453.390625 435.28125 452.503906 C 433.625 451.621094 432.019531 450.65625 430.457031 449.613281 C 428.898438 448.570312 427.394531 447.457031 425.941406 446.265625 C 424.492188 445.074219 423.105469 443.816406 421.777344 442.492188 C 420.449219 441.164062 419.191406 439.777344 418.003906 438.324219 C 416.8125 436.875 415.695312 435.371094 414.652344 433.808594 C 413.613281 432.25 412.648438 430.644531 411.765625 428.988281 C 410.878906 427.335938 410.078125 425.640625 409.359375 423.90625 C 408.640625 422.171875 408.011719 420.410156 407.464844 418.613281 C 406.921875 416.820312 406.464844 415 406.101562 413.160156 C 405.734375 411.320312 405.460938 409.46875 405.277344 407.601562 C 405.09375 405.734375 405 403.863281 405 401.984375 C 405 400.109375 405.09375 398.238281 405.277344 396.371094 C 405.460938 394.503906 405.734375 392.652344 406.101562 390.8125 C 406.464844 388.972656 406.921875 387.152344 407.464844 385.359375 C 408.011719 383.5625 408.640625 381.796875 409.359375 380.066406 C 410.078125 378.332031 410.878906 376.636719 411.765625 374.984375 C 412.648438 373.328125 413.613281 371.722656 414.652344 370.160156 C 415.695312 368.601562 416.8125 367.097656 418.003906 365.648438 C 419.191406 364.195312 420.449219 362.808594 421.777344 361.480469 C 423.105469 360.15625 424.492188 358.894531 425.941406 357.707031 C 427.394531 356.515625 428.898438 355.398438 430.457031 354.359375 C 432.019531 353.316406 433.625 352.351562 435.28125 351.46875 C 436.933594 350.582031 438.628906 349.78125 440.359375 349.0625 C 442.09375 348.347656 443.859375 347.714844 445.652344 347.171875 C 447.449219 346.625 449.265625 346.171875 451.105469 345.804688 C 452.945312 345.4375 454.800781 345.164062 456.667969 344.980469 C 458.535156 344.796875 460.40625 344.703125 462.28125 344.703125 C 464.160156 344.703125 466.03125 344.796875 467.898438 344.980469 C 469.765625 345.164062 471.617188 345.4375 473.457031 345.804688 C 475.296875 346.171875 477.113281 346.625 478.910156 347.171875 C 480.707031 347.714844 482.46875 348.347656 484.203125 349.0625 C 485.9375 349.78125 487.628906 350.582031 489.285156 351.46875 C 490.9375 352.351562 492.546875 353.316406 494.105469 354.359375 C 495.667969 355.398438 497.171875 356.515625 498.621094 357.707031 C 500.070312 358.894531 501.460938 360.15625 502.785156 361.480469 C 504.113281 362.808594 505.371094 364.195312 506.5625 365.648438 C 507.753906 367.097656 508.867188 368.601562 509.910156 370.160156 C 510.953125 371.722656 511.917969 373.328125 512.800781 374.984375 C 513.683594 376.636719 514.484375 378.332031 515.203125 380.066406 C 515.921875 381.796875 516.554688 383.5625 517.097656 385.359375 C 517.640625 387.152344 518.097656 388.972656 518.464844 390.8125 C 518.828125 392.652344 519.105469 394.503906 519.289062 396.371094 C 519.472656 398.238281 519.566406 400.109375 519.566406 401.984375 Z M 519.566406 401.984375 " fill-opacity="1" fill-rule="nonzero"/></g></svg>